<svg xmlns="http://www.w3.org/2000/svg" viewBox="0 0 32 32">
  <!-- Синий фон -->
  <rect width="32" height="32" rx="7" fill="#2563EB"/>
  <!-- Зуб (белый) — упрощённая форма для favicon -->
  <path fill="#ffffff" d="M16 4
    C13.5 4 11.5 5.8 11.5 8
    C11.5 9 11.8 9.9 11.8 11
    C11.8 12.8 11 14 11 15.8
    C11 17.5 11.8 19 13 19
    C14.2 19 14.6 17.8 15 16.2
    C15.2 15.4 15.4 15 16 15
    C16.6 15 16.8 15.4 17 16.2
    C17.4 17.8 17.8 19 19 19
    C20.2 19 21 17.5 21 15.8
    C21 14 20.2 12.8 20.2 11
    C20.2 9.9 20.5 9 20.5 8
    C20.5 5.8 18.5 4 16 4Z"/>
</svg>
